<svg id="Capa_1" data-name="Capa 1" xmlns="http://www.w3.org/2000/svg" viewBox="0 0 581.33 534.19"><defs><style>.cls-1{fill:#fff;}</style></defs><title>AdobeStock_381288464_Preview</title><path class="cls-1" d="M118.89,569.11V34.92H700.22V569.11ZM301,388.33l.5-.87c-2.43-3.74-4.74-7.57-7.35-11.17a6.6,6.6,0,0,0-3.75-2.39c-12.12-2.28-24.32-4.17-36.41-6.59a449.66,449.66,0,0,1-67.29-18.64C177,345.1,171.38,337,171.38,327q0-90.74,0-181.47a16.89,16.89,0,0,1,6.8-14.23,326.65,326.65,0,0,1,58.69-36.38A399.37,399.37,0,0,1,348.5,60.05c19.1-3.06,38.31-5.41,57.67-4.77A398.69,398.69,0,0,1,515.85,74.72c39,12.58,75.16,30.61,107.82,55.5,5.12,3.9,8.08,8.57,8.08,15.14q-.06,90.73,0,181.47c0,10.33-5.85,18.38-15.56,21.92-30.67,11.2-62.36,18.31-94.49,23.73-1.94.33-4.53.17-5.67,1.36-3.9,4.06-7.29,8.62-11.55,13.82,4.23-.57,7.29-1,10.35-1.4,35.82-5.31,71.07-13,105.2-25.36,15.55-5.62,24.21-18,24.21-34.48q0-90.93,0-181.85c0-9.57-3.62-17.18-11.06-23a337.6,337.6,0,0,0-61.18-38,405.8,405.8,0,0,0-97.89-32.81c-28.93-5.8-58.07-9.4-87.65-7.64a418,418,0,0,0-115,23.53,370.42,370.42,0,0,0-98.62,52.47c-9.83,7.32-14.39,16.45-14.35,28.7.19,58.75.09,117.49.09,176.24,0,19.42,8.76,31.48,27.15,37.87a511.67,511.67,0,0,0,75.11,19.71C274.21,384.09,287.63,386.11,301,388.33ZM436.73,534.86,449,552.66l5.69-2.87v-8.51A380.52,380.52,0,0,1,463,460.73c6.87-32.13,17.52-62.86,34-91.42,1.16-2,2.17-3.52,5.05-3.5,8.86.07,14.72-5.48,14.66-13.4S510.72,339,502,339q-100.64,0-201.25,0c-8.27,0-14.47,5.81-14.45,13.43s5.89,13.12,14,13.6a6.92,6.92,0,0,1,4.78,2.52c5.51,8.45,11.26,16.81,15.92,25.73,22.11,42.31,31,87.85,32.17,135.17.17,6.82,0,13.65,0,20.35l6,2.08L370.24,536l15.14,15.86,6.51-.48,11.74-14.7,12.84,14.83h6.2Zm87.15-171.75a5.41,5.41,0,0,0,1.33.23c24.68-4.47,49-10.17,72.71-18.58,12.39-4.4,19.72-15.19,19.72-28.46q0-80.07,0-160.13c0-8.3-3.21-15.06-10-19.9-6-4.28-12-8.52-18.2-12.45-37.09-23.49-77.54-38.48-120.43-47.13C443,71.43,416.65,68.08,390,69.48A385.57,385.57,0,0,0,281.48,91.12c-30.86,10.88-59.74,25.57-86.05,45.13-6.31,4.69-9.87,10.82-9.88,18.77q0,80.25,0,160.5c0,15.3,7.57,25.28,22,30.15a497.54,497.54,0,0,0,66.58,17c4,.77,8.1,1.33,12.93,2.11-2-3.34-3.31-5.88-5-8.17a6,6,0,0,0-3.28-2.05c-5.22-1.18-10.57-1.86-15.74-3.22-17.94-4.72-35.9-9.37-53.7-14.6-10.18-3-15.1-10.74-15.09-21.52,0-6.74,0-13.47,0-20.2q0-68.85,0-137.69c0-6.26,2.25-11.11,7.43-14.62,5.57-3.77,11-7.72,16.7-11.33,33.38-21.26,69.77-35.16,108.21-43.91,23.26-5.29,46.79-9,70.67-9.26,37-.4,72.91,6.25,108.14,17a322,322,0,0,1,94.84,46.58c5.18,3.73,8.63,8.08,8.63,14.76q-.06,78.94,0,157.88c0,12.14-4.88,19.45-16.54,22.74-19.65,5.54-39.47,10.47-59.21,15.7-1.14.3-2.58.63-3.22,1.46C527.73,357.1,525.92,360.07,523.88,363.11Zm-29.37-29.56V329c0-42.39-.05-84.78.09-127.17,0-3.7-1.15-4.47-4.64-4.46q-84.69.15-169.38.07H308.91V333.55h60.48c1.11,0,2.71-.32,3.26.27,2.88,3.1,6.16,1,9.61,1.61a29.71,29.71,0,0,0,0-3.85c-.5-3.46.92-4.54,4.36-4.4,6.1.26,12.22.07,18.32.07h15.44c.17,2.9.31,5.33.47,7.95a15,15,0,0,0,3.11.17c3.51-.55,7-1.74,10.5-1.78,16.2-.18,32.4-.06,48.6,0Z" transform="translate(-118.89 -34.92)"/><path d="M301,388.33c-13.38-2.22-26.8-4.24-40.14-6.71a511.67,511.67,0,0,1-75.11-19.71c-18.39-6.39-27.15-18.45-27.15-37.87,0-58.75.1-117.49-.09-176.24,0-12.25,4.52-21.38,14.35-28.7a370.42,370.42,0,0,1,98.62-52.47,418,418,0,0,1,115-23.53c29.58-1.76,58.72,1.84,87.65,7.64A405.8,405.8,0,0,1,572,83.55a337.6,337.6,0,0,1,61.18,38c7.44,5.83,11.08,13.44,11.06,23q-.11,90.93,0,181.85c0,16.48-8.66,28.86-24.21,34.48-34.13,12.32-69.38,20.05-105.2,25.36-3.06.45-6.12.83-10.35,1.4,4.26-5.2,7.65-9.76,11.55-13.82,1.14-1.19,3.73-1,5.67-1.36,32.13-5.42,63.82-12.53,94.49-23.73,9.71-3.54,15.55-11.59,15.56-21.92q0-90.74,0-181.47c0-6.57-3-11.24-8.08-15.14C591,105.33,554.83,87.3,515.85,74.72A398.69,398.69,0,0,0,406.17,55.28c-19.36-.64-38.57,1.71-57.67,4.77A399.37,399.37,0,0,0,236.87,94.87a326.65,326.65,0,0,0-58.69,36.38,16.89,16.89,0,0,0-6.8,14.23q.08,90.74,0,181.47c0,10,5.62,18.15,15.33,21.72A449.66,449.66,0,0,0,254,367.31c12.09,2.42,24.29,4.31,36.41,6.59a6.6,6.6,0,0,1,3.75,2.39c2.61,3.6,4.92,7.43,7.35,11.17Z" transform="translate(-118.89 -34.92)"/><path d="M436.73,534.86l-14.06,16.67h-6.2L403.63,536.7l-11.74,14.7-6.51.48L370.24,536l-11.05,15.84-6-2.08c0-6.7.15-13.53,0-20.35C352,482.11,343.08,436.57,321,394.26c-4.66-8.92-10.41-17.28-15.92-25.73a6.92,6.92,0,0,0-4.78-2.52c-8.1-.48-14-6-14-13.6S292.46,339,300.73,339q100.62,0,201.25,0c8.74,0,14.68,5.47,14.74,13.43s-5.8,13.47-14.66,13.4c-2.88,0-3.89,1.5-5.05,3.5-16.48,28.56-27.13,59.29-34,91.42a380.52,380.52,0,0,0-8.36,80.55v8.51L449,552.66ZM401.39,357.09H500.5c1,0,2.29.36,2.93-.12,1.63-1.25,3.89-2.75,4.14-4.4.19-1.33-2-3.34-3.51-4.48-.92-.69-2.65-.37-4-.37H303a17,17,0,0,0-3.35.14c-2.6.5-4.46,2-4.29,4.8s2,4.18,4.72,4.41c1,.08,2,0,3,0Zm1.76,8.75-1,0c-.39,1.24-.88,2.45-1.16,3.71-1,4.38-1.87,8.78-2.78,13.17-2.46,11.94-3.69,24.19-9.39,35.27a2.68,2.68,0,0,0,.36,2.31c4.15,5.28,8.39,10.49,12.8,16,3.78-4.47,7.13-8.8,10.89-12.74,2.7-2.82,4-5.36,1.58-9A13.07,13.07,0,0,1,412.9,410c-2.8-13.3-5.51-26.6-8.31-39.9A34.56,34.56,0,0,0,403.15,365.84Zm35.67,69.66c4.08-5.4,7.81-10.22,11.37-15.15a4.89,4.89,0,0,0,.48-3.11c-.57-5.19-1.42-10.35-1.89-15.55-1-11-1.77-22.09-2.78-33.12-.09-.92-1.24-1.74-1.9-2.61-.8.75-2,1.36-2.33,2.27-1.25,3.78-2.22,7.65-3.31,11.49-3.73,13-5.89,26.55-12.54,38.63a3.27,3.27,0,0,0,.5,2.88C430.34,425.9,434.4,430.45,438.82,435.5Zm-77.15-69-1.08.11a45.66,45.66,0,0,0-1,4.56c-.81,7.05-1.53,14.1-2.3,21.15-.93,8.49-.64,17.22-4.74,25.13a2.44,2.44,0,0,0-.12,2.05c3.84,5.45,7.78,10.84,12,16.62,3.6-4.31,6.58-8.32,10-11.87,3.14-3.23,4.45-6.12,1.39-10.19-1.29-1.72-1.84-4.07-2.44-6.22-3.18-11.38-6.25-22.79-9.41-34.17C363.34,371.29,362.46,368.93,361.67,366.54Zm-40.7-.35q13.15,23.28,26.29,46.57l1.43-.14c1.64-15.38,3.27-30.75,4.93-46.43Zm131.71,0c1.12,15.63,2.22,30.91,3.31,46.18l1.45.37L482.9,366.2Zm-84.37-.12c5.76,16.14,7.58,32.81,15,47.85,6.68-15.36,7.86-31.77,11.89-47.85Zm42,.1c3.66,15.77,5.16,31.71,10.71,46.88,7.05-14.92,9.67-31,14.51-46.88Zm29.16,79.08c-5.09,6.52-9.89,12.66-14.83,19,5,6.24,9.86,12.3,15.06,18.77l16-20.09Zm-56.16-21.65c-4.78,5.72-9.27,11-13.64,16.42a2.68,2.68,0,0,0-.11,2.53c4.58,5.83,9.29,11.57,14.24,17.68l14.05-18.66Zm-19.09,22.83c-3.8,4.58-7.07,8.8-10.64,12.74-2.15,2.36-1.9,4.28-.09,6.54,3.51,4.35,6.93,8.77,10.41,13.15,1,1.29,2.12,2.54,3.38,4,4-5.5,7.74-10.46,11.28-15.56a3.35,3.35,0,0,0,.06-3.12C374.09,458.37,369.34,452.65,364.26,446.44Zm56.36,23.08c-4.58,5.79-8.85,11.1-13,16.51a2.38,2.38,0,0,0,.07,2.27c4.45,5.47,9,10.85,13.81,16.6l14-16.76Zm-18.51-22.75-14,18.56c4.83,5.69,9.39,11.07,14.27,16.84,4.59-5.86,8.9-11.3,13.09-16.83a2.43,2.43,0,0,0-.22-2.26C411,457.72,406.71,452.44,402.11,446.77Zm32.77-6.11-14.54-16.21c-4.85,5.82-9.44,11.34-14.19,17,4.79,5.88,9.38,11.53,14.32,17.61C425.46,452.72,430.1,446.78,434.88,440.66Zm-31.37,85.85C408,521.13,412,516.29,416,511.34a2.72,2.72,0,0,0,.23-2.52c-4.33-5.4-8.8-10.69-13.55-16.39l-13.33,17.32ZM385.1,504.73c4.28-5.62,8.22-10.73,12.07-15.92.41-.56.69-1.84.36-2.24-4.29-5.25-8.71-10.4-13.32-15.84-4.11,5.64-7.92,10.73-11.52,15.95a3.36,3.36,0,0,0,.15,3.14C376.68,494.71,380.71,499.45,385.1,504.73Zm52.28,20.19c3.94-4.21,7.83-7.89,11.06-12.09,1.12-1.46,1.51-4.74.62-6.26-2.64-4.55-6.08-8.64-9.44-13.23-4.5,5.37-8.62,10.19-12.58,15.13a3.06,3.06,0,0,0-.23,2.85C430.12,515.8,433.62,520.14,437.38,524.92ZM370,525c3.32-4.48,6.74-9,10.05-13.67a2.43,2.43,0,0,0,.2-2.23c-4.1-5.09-8.31-10.08-12.78-15.44-3.06,4.09-6.62,7.42-8.25,11.52a13,13,0,0,0,.93,10.13C362.39,519,366.39,521.62,370,525Zm15.31-9.94c-3.58,4.92-6.84,9.3-10,13.77a2.81,2.81,0,0,0-.24,2.55c4.18,4.7,8.51,9.27,13.09,14.21,3.6-4.53,6.9-8.56,10-12.73a3,3,0,0,0-.27-2.82C393.94,525.15,389.79,520.36,385.32,515.09Zm34.12,30c4.32-5,8.28-9.41,12.1-14a2.74,2.74,0,0,0,.27-2.54c-3.29-4.45-6.74-8.78-10.38-13.46-4.42,5.3-8.51,10.11-12.44,15a3,3,0,0,0,.12,2.81C412.38,537,415.82,540.86,419.44,545.06Zm34.4-118.65c-2.91,3.83-6.11,7.94-9.16,12.17a2.77,2.77,0,0,0-.14,2.58c4.11,4.56,8.38,9,13,13.87,1.8-6.83,3.46-12.94,5-19.09a3.18,3.18,0,0,0-.79-2.57C459.27,431.05,456.69,428.91,453.84,426.41ZM350.06,453.34c3.3-3.95,6.26-7.41,9.09-11a2.43,2.43,0,0,0,.17-2.26c-3.53-4.93-7.19-9.78-11.38-15.42-1.43,3.44-3.85,6.35-3.42,8.76C345.66,440,348,446.32,350.06,453.34Zm114.17-26.29,22.09-53.66c-2.27,4-4.24,7.58-6.27,11.11-6.63,11.54-13.3,23.05-19.88,34.61a3,3,0,0,0-.19,2.58C461.24,423.6,462.81,425.3,464.23,427.05Zm-122.69-4.23c2-1.93,1.88-3.76.26-6.56-6.29-10.88-12.13-22-18.2-33-1.26-2.28-2.82-4.4-4.33-6.74C326.74,392,334.09,407.33,341.54,422.82Zm109,74.39c1-7.07,1.79-13.14,2.61-19.21a53.83,53.83,0,0,0-8.44,9.16,2.47,2.47,0,0,0,0,2.26C446.41,491.82,448.23,494.09,450.59,497.21Zm-93.12-.93c2-2.74,3.41-4.48,4.62-6.33.41-.63.79-1.84.47-2.28-2.05-2.82-4.3-5.5-6.49-8.23l-.88.49C355.9,485,356.61,490.13,357.47,496.28Zm90.7,26.7-6.87,7.28,5.9,8.3,1-.3Zm-88.49,15.65c6.83-6.39,6.62-10.06,0-13.14Z" transform="translate(-118.89 -34.92)"/><path d="M523.88,363.11c2-3,3.85-6,6-8.74.64-.83,2.08-1.16,3.22-1.46,19.74-5.23,39.56-10.16,59.21-15.7,11.66-3.29,16.54-10.6,16.54-22.74q0-78.93,0-157.88c0-6.68-3.45-11-8.63-14.76A322,322,0,0,0,505.4,95.25c-35.23-10.78-71.18-17.43-108.14-17-23.88.25-47.41,4-70.67,9.26-38.44,8.75-74.83,22.65-108.21,43.91-5.67,3.61-11.13,7.56-16.7,11.33-5.18,3.51-7.44,8.36-7.43,14.62q.1,68.85,0,137.69c0,6.73,0,13.46,0,20.2,0,10.78,4.91,18.53,15.09,21.52,17.8,5.23,35.76,9.88,53.7,14.6,5.17,1.36,10.52,2,15.74,3.22a6,6,0,0,1,3.28,2.05c1.67,2.29,3,4.83,5,8.17-4.83-.78-8.9-1.34-12.93-2.11a497.54,497.54,0,0,1-66.58-17c-14.45-4.87-22-14.85-22-30.15q-.09-80.25,0-160.5c0-8,3.57-14.08,9.88-18.77,26.31-19.56,55.19-34.25,86.05-45.13A385.57,385.57,0,0,1,390,69.48c26.69-1.4,53,2,79.09,7.21,42.89,8.65,83.34,23.64,120.43,47.13,6.2,3.93,12.22,8.17,18.2,12.45,6.77,4.84,10,11.6,10,19.9q0,80.06,0,160.13c0,13.27-7.33,24.06-19.72,28.46-23.66,8.41-48,14.11-72.71,18.58A5.41,5.41,0,0,1,523.88,363.11Z" transform="translate(-118.89 -34.92)"/><path d="M494.51,333.55H483c-16.2,0-32.4-.14-48.6,0-3.51,0-7,1.23-10.5,1.78a15,15,0,0,1-3.11-.17c-.16-2.62-.3-5.05-.47-7.95H404.91c-6.1,0-12.22.19-18.32-.07-3.44-.14-4.86.94-4.36,4.4a29.71,29.71,0,0,1,0,3.85c-3.45-.57-6.73,1.49-9.61-1.61-.55-.59-2.15-.27-3.26-.27H308.91V197.43h11.67q84.69,0,169.38-.07c3.49,0,4.65.76,4.64,4.46-.14,42.39-.09,84.78-.09,127.17Zm-64.61-9.4a6.66,6.66,0,0,0,1.4.38c17.21,0,34.41,0,51.62.05,2.68,0,2.61-1.55,2.61-3.41q0-55.76.05-111.5c0-2.87-1-3.54-3.69-3.54q-80.42.1-160.83,0c-2.7,0-3.69.63-3.68,3.52q.12,55.56,0,111.12c0,3.3,1.25,3.86,4.17,3.84,15.83-.12,31.67-.05,47.5-.05h4.18l.39-6H429.4C429.58,320.61,429.74,322.43,429.9,324.15Z" transform="translate(-118.89 -34.92)"/><path class="cls-1" d="M401.39,357.09H303c-1,0-2,0-3,0-2.7-.23-4.55-1.7-4.72-4.41s1.69-4.3,4.29-4.8a17,17,0,0,1,3.35-.14h197.1c1.36,0,3.09-.32,4,.37,1.53,1.14,3.7,3.15,3.51,4.48-.25,1.65-2.51,3.15-4.14,4.4-.64.48-1.93.12-2.93.12Z" transform="translate(-118.89 -34.92)"/><path class="cls-1" d="M403.15,365.84a34.56,34.56,0,0,1,1.44,4.23c2.8,13.3,5.51,26.6,8.31,39.9a13.07,13.07,0,0,0,1.51,4.59c2.44,3.64,1.12,6.18-1.58,9-3.76,3.94-7.11,8.27-10.89,12.74-4.41-5.47-8.65-10.68-12.8-16a2.68,2.68,0,0,1-.36-2.31c5.7-11.08,6.93-23.33,9.39-35.27.91-4.39,1.81-8.79,2.78-13.17.28-1.26.77-2.47,1.16-3.71Z" transform="translate(-118.89 -34.92)"/><path class="cls-1" d="M438.82,435.5c-4.42-5.05-8.48-9.6-12.4-14.27a3.27,3.27,0,0,1-.5-2.88c6.65-12.08,8.81-25.61,12.54-38.63,1.09-3.84,2.06-7.71,3.31-11.49.31-.91,1.53-1.52,2.33-2.27.66.87,1.81,1.69,1.9,2.61,1,11,1.79,22.09,2.78,33.12.47,5.2,1.32,10.36,1.89,15.55a4.89,4.89,0,0,1-.48,3.11C446.63,425.28,442.9,430.1,438.82,435.5Z" transform="translate(-118.89 -34.92)"/><path class="cls-1" d="M361.67,366.54c.79,2.39,1.67,4.75,2.34,7.17,3.16,11.38,6.23,22.79,9.41,34.17.6,2.15,1.15,4.5,2.44,6.22,3.06,4.07,1.75,7-1.39,10.19-3.45,3.55-6.43,7.56-10,11.87-4.19-5.78-8.13-11.17-12-16.62a2.44,2.44,0,0,1,.12-2.05c4.1-7.91,3.81-16.64,4.74-25.13.77-7.05,1.49-14.1,2.3-21.15a45.66,45.66,0,0,1,1-4.56Z" transform="translate(-118.89 -34.92)"/><path class="cls-1" d="M321,366.19h32.65c-1.66,15.68-3.29,31.05-4.93,46.43l-1.43.14Q334.12,389.48,321,366.19Z" transform="translate(-118.89 -34.92)"/><path class="cls-1" d="M452.68,366.2H482.9l-25.46,46.55-1.45-.37C454.9,397.11,453.8,381.83,452.68,366.2Z" transform="translate(-118.89 -34.92)"/><path class="cls-1" d="M368.31,366.08H395.2c-4,16.08-5.21,32.49-11.89,47.85C375.89,398.89,374.07,382.22,368.31,366.08Z" transform="translate(-118.89 -34.92)"/><path class="cls-1" d="M410.35,366.18h25.22c-4.84,15.87-7.46,32-14.51,46.88C415.51,397.89,414,382,410.35,366.18Z" transform="translate(-118.89 -34.92)"/><path class="cls-1" d="M439.51,445.26l16.25,17.68-16,20.09c-5.2-6.47-10.06-12.53-15.06-18.77C429.62,457.92,434.42,451.78,439.51,445.26Z" transform="translate(-118.89 -34.92)"/><path class="cls-1" d="M383.35,423.61l14.54,18-14.05,18.66c-4.95-6.11-9.66-11.85-14.24-17.68a2.68,2.68,0,0,1,.11-2.53C374.08,434.63,378.57,429.33,383.35,423.61Z" transform="translate(-118.89 -34.92)"/><path class="cls-1" d="M364.26,446.44c5.08,6.21,9.83,11.93,14.4,17.78a3.35,3.35,0,0,1-.06,3.12c-3.54,5.1-7.26,10.06-11.28,15.56-1.26-1.49-2.35-2.74-3.38-4-3.48-4.38-6.9-8.8-10.41-13.15-1.81-2.26-2.06-4.18.09-6.54C357.19,455.24,360.46,451,364.26,446.44Z" transform="translate(-118.89 -34.92)"/><path class="cls-1" d="M420.62,469.52l14.88,18.62-14,16.76c-4.81-5.75-9.36-11.13-13.81-16.6a2.38,2.38,0,0,1-.07-2.27C411.77,480.62,416,475.31,420.62,469.52Z" transform="translate(-118.89 -34.92)"/><path class="cls-1" d="M402.11,446.77c4.6,5.67,8.93,11,13.16,16.31a2.43,2.43,0,0,1,.22,2.26c-4.19,5.53-8.5,11-13.09,16.83-4.88-5.77-9.44-11.15-14.27-16.84Z" transform="translate(-118.89 -34.92)"/><path class="cls-1" d="M434.88,440.66c-4.78,6.12-9.42,12.06-14.41,18.43-4.94-6.08-9.53-11.73-14.32-17.61,4.75-5.69,9.34-11.21,14.19-17Z" transform="translate(-118.89 -34.92)"/><path class="cls-1" d="M403.51,526.51l-14.2-16.76,13.33-17.32c4.75,5.7,9.22,11,13.55,16.39a2.72,2.72,0,0,1-.23,2.52C412,516.29,408,521.13,403.51,526.51Z" transform="translate(-118.89 -34.92)"/><path class="cls-1" d="M385.1,504.73c-4.39-5.28-8.42-10-12.26-14.91a3.36,3.36,0,0,1-.15-3.14c3.6-5.22,7.41-10.31,11.52-15.95,4.61,5.44,9,10.59,13.32,15.84.33.4.05,1.68-.36,2.24C393.32,494,389.38,499.11,385.1,504.73Z" transform="translate(-118.89 -34.92)"/><path class="cls-1" d="M437.38,524.92c-3.76-4.78-7.26-9.12-10.57-13.6a3.06,3.06,0,0,1,.23-2.85c4-4.94,8.08-9.76,12.58-15.13,3.36,4.59,6.8,8.68,9.44,13.23.89,1.52.5,4.8-.62,6.26C445.21,517,441.32,520.71,437.38,524.92Z" transform="translate(-118.89 -34.92)"/><path class="cls-1" d="M370,525c-3.62-3.41-7.62-6-9.85-9.69a13,13,0,0,1-.93-10.13c1.63-4.1,5.19-7.43,8.25-11.52,4.47,5.36,8.68,10.35,12.78,15.44a2.43,2.43,0,0,1-.2,2.23C376.75,516,373.33,520.55,370,525Z" transform="translate(-118.89 -34.92)"/><path class="cls-1" d="M385.32,515.09c4.47,5.27,8.62,10.06,12.61,15a3,3,0,0,1,.27,2.82c-3.09,4.17-6.39,8.2-10,12.73-4.58-4.94-8.91-9.51-13.09-14.21a2.81,2.81,0,0,1,.24-2.55C378.48,524.39,381.74,520,385.32,515.09Z" transform="translate(-118.89 -34.92)"/><path class="cls-1" d="M419.44,545.06c-3.62-4.2-7.06-8.08-10.33-12.11a3,3,0,0,1-.12-2.81c3.93-4.94,8-9.75,12.44-15,3.64,4.68,7.09,9,10.38,13.46a2.74,2.74,0,0,1-.27,2.54C427.72,535.65,423.76,540.1,419.44,545.06Z" transform="translate(-118.89 -34.92)"/><path class="cls-1" d="M453.84,426.41c2.85,2.5,5.43,4.64,7.84,7a3.18,3.18,0,0,1,.79,2.57c-1.5,6.15-3.16,12.26-5,19.09-4.59-4.87-8.86-9.31-13-13.87a2.77,2.77,0,0,1,.14-2.58C447.73,434.35,450.93,430.24,453.84,426.41Z" transform="translate(-118.89 -34.92)"/><path class="cls-1" d="M350.06,453.34c-2.05-7-4.4-13.35-5.54-19.9-.43-2.41,2-5.32,3.42-8.76,4.19,5.64,7.85,10.49,11.38,15.42a2.43,2.43,0,0,1-.17,2.26C356.32,445.93,353.36,449.39,350.06,453.34Z" transform="translate(-118.89 -34.92)"/><path class="cls-1" d="M464.23,427.05c-1.42-1.75-3-3.45-4.25-5.36a3,3,0,0,1,.19-2.58c6.58-11.56,13.25-23.07,19.88-34.61,2-3.53,4-7.09,6.27-11.11Z" transform="translate(-118.89 -34.92)"/><path class="cls-1" d="M341.54,422.82c-7.45-15.49-14.8-30.8-22.27-46.34,1.51,2.34,3.07,4.46,4.33,6.74,6.07,11,11.91,22.16,18.2,33C343.42,419.06,343.54,420.89,341.54,422.82Z" transform="translate(-118.89 -34.92)"/><path class="cls-1" d="M450.59,497.21c-2.36-3.12-4.18-5.39-5.81-7.79a2.47,2.47,0,0,1,0-2.26A53.83,53.83,0,0,1,453.2,478C452.38,484.07,451.55,490.14,450.59,497.21Z" transform="translate(-118.89 -34.92)"/><path class="cls-1" d="M357.47,496.28c-.86-6.15-1.57-11.25-2.28-16.35l.88-.49c2.19,2.73,4.44,5.41,6.49,8.23.32.44-.06,1.65-.47,2.28C360.88,491.8,359.5,493.54,357.47,496.28Z" transform="translate(-118.89 -34.92)"/><path class="cls-1" d="M448.17,523v15.28l-1,.3-5.9-8.3Z" transform="translate(-118.89 -34.92)"/><path class="cls-1" d="M359.68,538.63V525.49C366.3,528.57,366.51,532.24,359.68,538.63Z" transform="translate(-118.89 -34.92)"/><path class="cls-1" d="M429.9,324.15c-.16-1.72-.32-3.54-.5-5.62H373.59l-.39,6H369c-15.83,0-31.67-.07-47.5.05-2.92,0-4.18-.54-4.17-3.84q.16-55.56,0-111.12c0-2.89,1-3.52,3.68-3.52q80.42.1,160.83,0c2.71,0,3.69.67,3.69,3.54q-.13,55.76-.05,111.5c0,1.86.07,3.43-2.61,3.41-17.21-.07-34.41,0-51.62-.05A6.66,6.66,0,0,1,429.9,324.15Z" transform="translate(-118.89 -34.92)"/></svg>