<svg id="Capa_1" data-name="Capa 1" xmlns="http://www.w3.org/2000/svg" viewBox="0 0 378.02 378.11"><title>AdobeStock_109699393_Preview</title><path d="M332.9,336.25,317,294.72c9.64-6.81,18.87-12.64,27.33-19.44,26.26-21.11,46.69-47.27,64-76,9.26-15.35,17.92-31.07,27.41-46.28s20-29.38,33.5-41.16c4.95-4.33,10.81-7.65,16.4-11.19a5.58,5.58,0,0,1,4.33-.21q74.32,28.26,107.8,100.42c.24.52.45,1.07.65,1.61a7.76,7.76,0,0,1,.13,1.15c-6.66,4.43-13.44,9.16-20.44,13.57-29,18.23-59,34.71-89.48,50.32a1507.37,1507.37,0,0,1-151.7,67.23C335.86,335.19,334.78,335.57,332.9,336.25Z" transform="translate(-236.28 -89.07)"/><path d="M338.44,346.27C431,310.66,519.91,268.62,603.13,214.44c.28.72.69,1.65,1,2.61q23.43,71.32-7.19,139.86a9.39,9.39,0,0,1-3.34,3.79c-10,6.57-21.4,9.53-33,11.67-14.69,2.69-29.57,2.51-44.41,2.94-31.25.89-62.5,1.68-93.72,3.05-17.92.79-35.86,2.34-53.3,6.84-4.67,1.21-6.73-.1-9.22-3.69A307.65,307.65,0,0,1,338.44,346.27Z" transform="translate(-236.28 -89.07)"/><path d="M313.37,282.85c-2.93-13.8-6.07-26.83-8.41-40a467.25,467.25,0,0,1-6.53-98.54c.18-5,1.77-8.43,5.75-11.63Q372,78.17,457.75,91.77c4.72.74,9.36,1.94,14.65,3-2.41,1.85-4.32,3.24-6.15,4.73-14.27,11.66-25.67,25.88-35.7,41.15q-12.45,19-23.57,38.79c-16.7,29.81-36.16,57.49-61.9,80.23-8.34,7.37-17.74,13.56-26.69,20.24A57,57,0,0,1,313.37,282.85Z" transform="translate(-236.28 -89.07)"/><path d="M371.34,395.63c7.6-1.22,14.67-2.6,21.79-3.44,34.92-4.17,70-4.64,105.12-5.41,16.48-.36,33-.71,49.44-1.57a128.15,128.15,0,0,0,38.2-8.09,20.72,20.72,0,0,1-1,2.08q-42.52,65.15-118.18,83.31a7.28,7.28,0,0,1-4.16-.31c-34.65-14.48-64.52-35.63-89.21-64C372.76,397.58,372.29,396.88,371.34,395.63Z" transform="translate(-236.28 -89.07)"/><path d="M286.37,149.53c-.51,46.61,4.53,92.24,17.07,137.5-4.42.78-8.63,1.67-12.87,2.24-11.12,1.5-22.15,1.29-32.85-2.55a36.17,36.17,0,0,1-19.54-16.37,11.52,11.52,0,0,1-1.59-7.14,188.19,188.19,0,0,1,39.6-101.48C279.44,157.55,283,153.59,286.37,149.53Z" transform="translate(-236.28 -89.07)"/><path d="M255.52,361.51a187.81,187.81,0,0,1-19.24-74.94c21.37,18.16,45.5,16.33,70,11.32,5.42,14,10.82,28,16.33,42.25C300.68,348,278.6,355.93,255.52,361.51Z" transform="translate(-236.28 -89.07)"/><path d="M311,428.71a190,190,0,0,1-49.71-56.38l66.32-21.64,24.78,40.08C335,399,318.18,408.47,311,428.71Z" transform="translate(-236.28 -89.07)"/><path d="M443.8,466.17a180.22,180.22,0,0,1-39.22-.13,189.41,189.41,0,0,1-80.88-28.38c-2.37-1.49-2.78-2.87-2-5.35a37.56,37.56,0,0,1,10.5-16c7.75-7.2,17-11.91,26.67-15.92.66-.27,2.13.4,2.69,1.07a250.34,250.34,0,0,0,79.85,63.44C442,465.15,442.58,465.49,443.8,466.17Z" transform="translate(-236.28 -89.07)"/></svg>